# xmcd CD database file generated by LOLA_Freedb v0.9beta0
# 
# Track frame offsets:
#      150
#      14499
#      24987
#      39676
#      51163
#      64684
#      77025
#      91902
#      105907
#      117654
#      130333
#      146792
# 
# Disc length: 2172 seconds
# 
# Revision: 0 
# Processed by: cddbd v1.5.1PL2 Copyright (c) Steve Scherf et al.
# Submitted via: LOLA_Freedb v0.9beta0
# 
DISCID=a0087a0c
DTITLE=Les Humphries Singers - Mexico
DYEAR=1900
DGENRE=
TTITLE0=Old time religion
TTITLE1=Malaika
TTITLE2=Lovely day
TTITLE3=She''s really something else
TTITLE4=Old cotton wheel
TTITLE5=Tell me why
TTITLE6=Jennifer Adam
TTITLE7=Rock candy mountain
TTITLE8=Pass me by
TTITLE9=That what he calls Love
TTITLE10=Wouldn' she be nice
TTITLE11=Mexico
EXTD=
EXTT0=
EXTT1=
EXTT2=
EXTT3=
EXTT4=
EXTT5=
EXTT6=
EXTT7=
EXTT8=
EXTT9=
EXTT10=
EXTT11=
PLAYORDER=
